Results
version=1
nRows=12
nColumns=24
inDegrees=yes
endheader
time	pelvis_tilt	pelvis_list	pelvis_rotation	pelvis_tx	pelvis_ty	pelvis_tz	hip_flexion_r	hip_adduction_r	hip_rotation_r	knee_angle_r	ankle_angle_r	subtalar_angle_r	mtp_angle_r	hip_flexion_l	hip_adduction_l	hip_rotation_l	knee_angle_l	ankle_angle_l	subtalar_angle_l	mtp_angle_l	lumbar_extension	lumbar_bending	lumbar_rotation
      0.81650000	     -3.44044300	     -1.30121854	      0.66708291	     -0.47556291	      1.00174076	      0.32079300	     16.54034509	      5.06847448	      1.49802027	    -22.24769042	      9.41289952	    -12.91068896	      1.06660456	     17.14469168	     -1.90882629	     -4.61454156	    -69.26020039	     -8.30503064	     -8.97313798	      6.66599442	     -8.97986504	      8.58359325	     -0.28236754
      0.82066667	     -3.36501188	     -1.15516711	      0.66878687	     -0.47073810	      1.00283981	      0.32108330	     15.95635342	      4.94925354	      1.61248765	    -21.85406446	      9.47377907	    -12.98162478	      1.03922132	     17.63694162	     -1.82971511	     -4.70547916	    -69.11445521	     -7.93968384	     -9.34742755	      6.42529479	     -9.12661059	      8.27869580	      0.17654143
      0.82483333	     -3.30377496	     -1.02225643	      0.67440760	     -0.46590132	      1.00387278	      0.32135277	     15.38631634	      4.83718967	      1.69627630	    -21.45833850	      9.55308981	    -13.00712767	      1.00930552	     18.13594934	     -1.76286555	     -4.78999536	    -68.92804465	     -7.51888453	     -9.64207721	      6.16376576	     -9.23191082	      8.02464098	      0.48397946
      0.82900000	     -3.25116290	     -0.87751354	      0.67598317	     -0.46106287	      1.00488915	      0.32161022	     14.82208707	      4.70979909	      1.77838881	    -21.05494870	      9.62836600	    -13.02504499	      0.98011837	     18.62833616	     -1.67714038	     -4.87320581	    -68.67726068	     -7.13252550	     -9.93783772	      5.91643305	     -9.31917920	      7.76632270	      0.75263577
      0.83316667	     -3.20874533	     -0.72737488	      0.67737846	     -0.45625426	      1.00582788	      0.32184612	     14.28222033	      4.57087538	      1.83952321	    -20.67728318	      9.69983582	    -13.00377274	      0.96447752	     19.12524410	     -1.57845515	     -4.94739464	    -68.38875603	     -6.69752629	    -10.20149084	      5.79200457	     -9.40421147	      7.52806279	      0.92147645
      0.83733333	     -3.13370299	     -0.58315803	      0.66309771	     -0.45138078	      1.00682733	      0.32211113	     13.67800442	      4.44325762	      1.92224036	    -20.24334304	      9.79916730	    -13.00178779	      0.93604191	     19.55819498	     -1.49532670	     -5.04201987	    -68.02032331	     -6.35414262	    -10.42542393	      5.56617070	     -9.50773077	      7.25812704	      1.29258568
      0.84150000	     -3.10178205	     -0.42569701	      0.65658927	     -0.44656165	      1.00770005	      0.32232874	     13.14371054	      4.29267830	      1.97973427	    -19.85383108	      9.86630693	    -12.96953107	      0.91808302	     20.03596871	     -1.38111614	     -5.11399375	    -67.61908745	     -5.94201595	    -10.63593900	      5.43521326	     -9.58132982	      6.99909033	      1.47890846
      0.84566667	     -3.00961437	     -0.27234257	      0.64117000	     -0.44169927	      1.00865396	      0.32256094	     12.52470625	      4.14637131	      2.03269611	    -19.42536580	      9.97657435	    -12.92811431	      0.89200528	     20.42317786	     -1.28000448	     -5.20097740	    -67.14712776	     -5.58730958	    -10.80314825	      5.24645057	     -9.70226826	      6.73069914	      1.80050374
      0.84983333	     -3.00406728	     -0.12239622	      0.63200869	     -0.43685284	      1.00942066	      0.32274279	     12.01819784	      3.99415169	      2.04869151	    -19.03351642	     10.03135562	    -12.88295488	      0.88063639	     20.89957477	     -1.16867521	     -5.27026647	    -66.64402474	     -5.16455793	    -10.97181578	      5.17604275	     -9.70375649	      6.50447513	      1.92836616
      0.85400000	     -2.91776790	      0.03005906	      0.61373169	     -0.43202986	      1.01027624	      0.32294627	     11.40855442	      3.84554957	      2.11157009	    -18.60685375	     10.14114383	    -12.81722434	      0.85575946	     21.26990420	     -1.05201151	     -5.32855286	    -66.07686397	     -4.79690270	    -11.05707082	      5.01243962	     -9.86132778	      6.22688251	      2.28870710
      0.85816667	     -2.86082931	      0.17624364	      0.59701614	     -0.42717297	      1.01103831	      0.32312375	     10.83664683	      3.69534690	      2.12761209	    -18.19511206	     10.24576379	    -12.74089867	      0.82683943	     21.65793491	     -0.94349570	     -5.39563104	    -65.46747229	     -4.41097519	    -11.13909566	      4.83301615	     -9.94328999	      5.97886397	      2.55529282
      0.86233333	     -2.83490922	      0.30487944	      0.58613219	     -0.42233524	      1.01170329	      0.32327855	     10.29921134	      3.56137558	      2.14119972	    -17.78095742	     10.32540227	    -12.67304598	      0.79999684	     22.07218545	     -0.84294224	     -5.43512458	    -64.82036530	     -4.00453276	    -11.17571440	      4.67866568	     -9.99445385	      5.75961094	      2.78372459
